<?xml version="1.0" standalone="no"?><!DOCTYPE svg PUBLIC "-//W3C//DTD SVG 1.1//EN" "http://www.w3.org/Graphics/SVG/1.1/DTD/svg11.dtd"><svg t="1692772104711" class="icon" viewBox="0 0 1024 1024" version="1.1" xmlns="http://www.w3.org/2000/svg" p-id="3732" xmlns:xlink="http://www.w3.org/1999/xlink" width="200" height="200"><path d="M810.205241 794.413068c0 26.353205-21.36561 47.713698-47.717791 47.713698L166.082084 842.126766l83.498716-393.623939c0-26.350135 21.363564-47.711652 47.711652-47.711652l548.693714 0c26.346041 0 47.711652 21.361517 47.711652 47.711652L810.205241 794.413068 810.205241 794.413068zM261.510504 365.005135l536.765033 0 0-46.874587c0-26.351158-21.364587-47.715745-47.710628-47.715745L464.284767 270.414803 464.284767 227.187279c0-26.347065-21.35947-47.711652-47.711652-47.711652L178.011788 179.475628c-26.348088 0-47.711652 21.363564-47.711652 47.711652l0 567.236022 83.498716-381.693212C213.798852 386.367675 235.158323 365.005135 261.510504 365.005135L261.510504 365.005135zM261.510504 365.005135" fill="#272636" p-id="3733"></path></svg>